<?xml version="1.0" encoding="UTF-8" standalone="no"?>
<!-- Created with Inkscape (http://www.inkscape.org/) -->

<svg
   xmlns:dc="http://purl.org/dc/elements/1.1/"
   xmlns:cc="http://creativecommons.org/ns#"
   xmlns:rdf="http://www.w3.org/1999/02/22-rdf-syntax-ns#"
   xmlns:svg="http://www.w3.org/2000/svg"
   xmlns="http://www.w3.org/2000/svg"
   xmlns:sodipodi="http://sodipodi.sourceforge.net/DTD/sodipodi-0.dtd"
   xmlns:inkscape="http://www.inkscape.org/namespaces/inkscape"
   width="800"
   height="200"
   id="svg2"
   version="1.1"
   inkscape:version="0.48.4 r9939"
   sodipodi:docname="logoTambor2.svg">
  <defs
     id="defs4" />
  <sodipodi:namedview
     id="base"
     pagecolor="#060000"
     bordercolor="#666666"
     borderopacity="1.0"
     inkscape:pageopacity="0.96078431"
     inkscape:pageshadow="2"
     inkscape:zoom="0.49497475"
     inkscape:cx="620.52567"
     inkscape:cy="183.51242"
     inkscape:document-units="px"
     inkscape:current-layer="layer1"
     showgrid="false"
     inkscape:window-width="1366"
     inkscape:window-height="717"
     inkscape:window-x="0"
     inkscape:window-y="0"
     inkscape:window-maximized="1"
     showguides="true"
     inkscape:guide-bbox="true"
     fit-margin-top="0"
     fit-margin-left="0"
     fit-margin-right="0"
     fit-margin-bottom="0" />
  <metadata
     id="metadata7">
    <rdf:RDF>
      <cc:Work
         rdf:about="">
        <dc:format>image/svg+xml</dc:format>
        <dc:type
           rdf:resource="http://purl.org/dc/dcmitype/StillImage" />
        <dc:title></dc:title>
      </cc:Work>
    </rdf:RDF>
  </metadata>
  <g
     inkscape:label="Capa 1"
     inkscape:groupmode="layer"
     id="layer1"
     transform="translate(795.68757,-728.00932)">
    <path
       style="fill:#000000"
       d=""
       id="path3179"
       inkscape:connector-curvature="0" />
    <g
       id="g3986"
       transform="matrix(2.605582,0,0,0.87893781,-2100.7674,340.60863)">
      <g
         transform="matrix(1.9543449,0,0,1.9249484,-181.35764,-1262.1712)"
         id="g4032"
         style="opacity:0.28979588">
        <path
           style="opacity:0.40408164;fill:#00ffff;fill-opacity:1;stroke:none"
           d="m 386.95276,1153.8444 c -25.69165,0 -46.5427,-22.8917 -46.5427,-51.1305 0,-4.0339 0.45939,-7.9496 1.2636,-11.714 1.63279,26.6123 21.77713,47.625 46.4023,47.625 16.81095,0 31.52478,-9.8091 39.69819,-24.4965 8.17341,14.6874 22.88724,24.4965 39.69819,24.4965 16.43584,0 30.86174,-9.4118 39.13658,-23.556 8.27287,14.1556 22.72788,23.556 39.17169,23.556 14.05012,0 26.64059,-6.8759 35.17028,-17.6991 8.52969,10.8232 21.12016,17.6991 35.17027,17.6991 15.3509,0 28.94426,-8.217 37.41668,-20.8199 8.47146,12.6146 22.09258,20.8199 37.45179,20.8199 21.99712,0 40.46316,-16.7805 45.3142,-39.3312 0.0677,1.1277 0.10524,2.2735 0.10524,3.4202 0,28.2388 -20.85105,51.1305 -46.5427,51.1305 -15.35921,0 -28.98033,-8.2054 -37.45178,-20.8199 -8.47243,12.6029 -22.06579,20.8199 -37.41669,20.8199 -14.05011,0 -26.64058,-6.8757 -35.17027,-17.6991 -8.52969,10.8234 -21.12016,17.6991 -35.17028,17.6991 -16.44381,0 -30.89882,-9.4004 -39.17169,-23.556 -8.27484,14.1442 -22.70074,23.556 -39.13658,23.556 -16.81095,0 -31.52478,-9.8091 -39.69819,-24.4965 -8.17341,14.6874 -22.88724,24.4965 -39.69818,24.4965 z"
           id="path3997"
           inkscape:connector-curvature="0" />
        <path
           inkscape:connector-curvature="0"
           id="path4011"
           d="m 365.73956,1157.6195 c -25.69165,0 -46.5427,-22.8918 -46.5427,-51.1306 0,-4.0338 0.45939,-7.9495 1.2636,-11.714 1.63279,26.6124 21.77713,47.6251 46.4023,47.6251 16.81095,0 31.52478,-9.8091 39.69819,-24.4965 8.17341,14.6874 22.88724,24.4965 39.69819,24.4965 16.43584,0 30.86174,-9.4119 39.13658,-23.556 8.27287,14.1555 22.72788,23.556 39.17169,23.556 14.05012,0 26.64059,-6.8759 35.17028,-17.6991 8.52969,10.8232 21.12016,17.6991 35.17027,17.6991 15.3509,0 28.94426,-8.217 37.41668,-20.8199 8.47146,12.6146 22.09258,20.8199 37.45179,20.8199 21.99712,0 40.46316,-16.7806 45.3142,-39.3312 0.0677,1.1277 0.10524,2.2734 0.10524,3.4201 0,28.2388 -20.85105,51.1306 -46.5427,51.1306 -15.35921,0 -28.98033,-8.2054 -37.45178,-20.82 -8.47243,12.603 -22.06579,20.82 -37.41669,20.82 -14.05011,0 -26.64058,-6.8758 -35.17027,-17.6992 -8.52969,10.8234 -21.12016,17.6992 -35.17028,17.6992 -16.44381,0 -30.89882,-9.4004 -39.17169,-23.5561 -8.27484,14.1442 -22.70074,23.5561 -39.13658,23.5561 -16.81095,0 -31.52478,-9.8091 -39.69819,-24.4966 -8.17341,14.6875 -22.88724,24.4966 -39.69818,24.4966 z"
           style="opacity:0.40408164;fill:#00ffff;fill-opacity:1;stroke:none" />
      </g>
    </g>
    <text
       xml:space="preserve"
       style="font-size:72px;font-style:normal;font-variant:normal;font-weight:normal;font-stretch:normal;line-height:125%;letter-spacing:0px;word-spacing:0px;fill:#000000;fill-opacity:1;stroke:none;font-family:Drakolomb;-inkscape-font-specification:Drakolomb"
       x="336.3808"
       y="1382.6821"
       id="text3007"
       sodipodi:linespacing="125%"><tspan
         sodipodi:role="line"
         id="tspan3009"
         x="336.3808"
         y="1382.6821" /></text>
    <g
       id="g3975"
       transform="matrix(0.67987406,0,0,2.2008398,-739.37155,-750.57983)"
       style="stroke:#f9f0f0;stroke-width:0.46334729;stroke-miterlimit:4;stroke-opacity:1;stroke-dasharray:none">
      <text
         transform="scale(1.4574994,0.68610664)"
         sodipodi:linespacing="125%"
         id="text2997"
         y="1067.3575"
         x="211.73262"
         style="font-size:66.62911987px;font-style:normal;font-variant:normal;font-weight:normal;font-stretch:normal;line-height:125%;letter-spacing:0px;word-spacing:0px;fill:#000000;fill-opacity:1;stroke:#f9f0f0;stroke-width:2.91976357;stroke-miterlimit:4;stroke-opacity:1;stroke-dasharray:none;font-family:Drakolomb;-inkscape-font-specification:Drakolomb"
         xml:space="preserve"><tspan
           style="fill:#ffffff;stroke:#f9f0f0;stroke-width:2.91976357;stroke-miterlimit:4;stroke-opacity:1;stroke-dasharray:none"
           y="1067.3575"
           x="211.73262"
           id="tspan2999"
           sodipodi:role="line">NAVIERA</tspan></text>
      <text
         sodipodi:linespacing="125%"
         id="text3001"
         y="915.1546"
         x="514.56592"
         style="font-size:64.96981812px;font-style:normal;font-variant:normal;font-weight:normal;font-stretch:normal;line-height:125%;letter-spacing:0px;word-spacing:0px;fill:#00ffff;fill-opacity:0.98823529;stroke:#00ffff;stroke-width:2.88908529;stroke-miterlimit:4;stroke-opacity:0.98695655;stroke-dasharray:none;font-family:Drakolomb;-inkscape-font-specification:Drakolomb"
         xml:space="preserve"
         transform="scale(1.3590746,0.73579478)"><tspan
           y="915.1546"
           x="514.56592"
           id="tspan3003"
           sodipodi:role="line"
           style="stroke-width:2.88908529" /><tspan
           style="fill:#00ffff;fill-opacity:0.98823529;stroke:#00ffff;stroke-width:2.88908529;stroke-miterlimit:4;stroke-opacity:0.98695655;stroke-dasharray:none"
           y="996.36688"
           x="514.56592"
           id="tspan3005"
           sodipodi:role="line">TAMBOR</tspan></text>
      <text
         xml:space="preserve"
         style="font-size:72px;font-style:normal;font-variant:normal;font-weight:normal;font-stretch:normal;line-height:125%;letter-spacing:0px;word-spacing:0px;fill:#000000;fill-opacity:1;stroke:#f9f0f0;stroke-width:0.3682892;stroke-miterlimit:4;stroke-opacity:1;stroke-dasharray:none;font-family:Poetsen One;-inkscape-font-specification:Poetsen One"
         x="112.12693"
         y="179.80205"
         id="text3994"
         sodipodi:linespacing="125%"
         transform="matrix(1.5524559,0,0,1.0195676,271.54533,652.94373)"><tspan
           sodipodi:role="line"
           id="tspan3996"
           x="112.12693"
           y="179.80205" /></text>
    </g>
    <path
       inkscape:connector-curvature="0"
       style="fill:#ffffff;stroke:none"
       d="m 874.10159,1267.3081 34.877,23.0312 c 1.703,-0.413 3.1488,-1.0434 4.2733,-1.8437 2.1453,0.9613 4.9004,1.5625 7.8991,1.5625 2.4425,0 4.684,-0.4009 6.6042,-1.0625 1.9223,0.6637 4.2005,1.0625 6.6473,1.0625 3.7671,0 7.1338,-0.9363 9.4099,-2.375 2.2761,1.4387 5.6429,2.375 9.4099,2.375 3.9726,0 7.5268,-1.017 9.7984,-2.5938 2.2724,1.5677 5.7959,2.5938 9.7551,2.5938 4.4042,0 8.2431,-1.2472 10.4459,-3.125 2.2027,1.8778 6.0848,3.125 10.489,3.125 4.9345,0 9.13621,-1.5792 11.13641,-3.8438 1.9884,2.2512 6.1962,3.8252 11.0933,3.8438 l 27.8412,-22.75 -169.68001,0 z"
       id="path3810" />
    <path
       style="fill:#ffffff;stroke:#fff6f6;stroke-width:0.82838994;stroke-miterlimit:4;stroke-opacity:1;stroke-dashoffset:0"
       d="m 955.19599,1219.2598 0.4375,0 0.4374,0 0,43.3222 -55.1129,0 z"
       id="rect3819"
       inkscape:connector-curvature="0"
       sodipodi:nodetypes="cccccc" />
    <path
       sodipodi:nodetypes="cccccc"
       inkscape:connector-curvature="0"
       id="path3822"
       d="m 963.27709,1219.2598 -0.4374,0 -0.4373,0 0,43.3222 55.11281,0 z"
       style="fill:#ffffff;stroke:#fff6f6;stroke-width:0.82838994;stroke-miterlimit:4;stroke-opacity:1;stroke-dashoffset:0" />
    <path
       style="fill:none;stroke:none"
       d="m 968.17599,1289.3 c -0.3288,-0.3851 -1.0111,-0.5153 -1.5162,-0.2893 -0.5052,0.226 -0.9185,0.033 -0.9185,-0.4288 0,-0.5105 -0.9669,-0.7059 -2.4665,-0.4983 l -2.4666,0.3414 0,-10.6153 0,-10.6152 41.54161,0 41.5416,0 -2.3235,1.9009 c -1.2779,1.0455 -3.9883,3.1726 -6.0232,4.7269 -2.035,1.5543 -3.6999,3.0722 -3.6999,3.3731 0,0.3009 -1.7759,1.7087 -3.9464,3.1284 -2.1706,1.4197 -3.9465,2.8626 -3.9465,3.2064 0,0.3439 -2.0312,1.9807 -4.5137,3.6373 -3.7475,2.5009 -4.9616,2.9317 -7.153,2.5382 -1.4516,-0.2607 -2.7882,-0.7737 -2.9702,-1.1399 -0.182,-0.3663 -0.6867,-0.5068 -1.1215,-0.3122 -0.4348,0.1945 -1.3125,-0.1016 -1.9505,-0.6581 -0.9838,-0.8583 -1.6955,-0.7487 -4.6892,0.7222 -3.85911,1.8959 -10.85921,2.3709 -12.92291,0.8768 -0.6512,-0.4714 -1.1839,-0.5823 -1.1839,-0.2465 0,0.3359 -0.8504,0.053 -1.8898,-0.6274 -1.7772,-1.1644 -2.0413,-1.1664 -4.4311,-0.033 -2.8731,1.3629 -12.0391,2.0792 -12.9501,1.0121 l 0,0 z"
       id="path3889"
       inkscape:connector-curvature="0" />
    <path
       style="fill:none;stroke:none"
       d="m 968.17599,1289.3 c -0.3288,-0.3851 -1.0111,-0.5153 -1.5162,-0.2893 -0.5052,0.226 -0.9185,0.033 -0.9185,-0.4288 0,-0.5105 -0.9669,-0.7059 -2.4665,-0.4983 l -2.4666,0.3414 0,-10.6153 0,-10.6152 41.54161,0 41.5416,0 -2.3235,1.9009 c -1.2779,1.0455 -3.9883,3.1726 -6.0232,4.7269 -2.035,1.5543 -3.6999,3.0722 -3.6999,3.3731 0,0.3009 -1.7759,1.7087 -3.9464,3.1284 -2.1706,1.4197 -3.9465,2.8626 -3.9465,3.2064 0,0.3439 -2.0312,1.9807 -4.5137,3.6373 -3.7475,2.5009 -4.9616,2.9317 -7.153,2.5382 -1.4516,-0.2607 -2.7882,-0.7737 -2.9702,-1.1399 -0.182,-0.3663 -0.6867,-0.5068 -1.1215,-0.3122 -0.4348,0.1945 -1.3125,-0.1016 -1.9505,-0.6581 -0.9838,-0.8583 -1.6955,-0.7487 -4.6892,0.7222 -3.85911,1.8959 -10.85921,2.3709 -12.92291,0.8768 -0.6512,-0.4714 -1.1839,-0.5823 -1.1839,-0.2465 0,0.3359 -0.8504,0.053 -1.8898,-0.6274 -1.7772,-1.1644 -2.0413,-1.1664 -4.4311,-0.033 -2.8731,1.3629 -12.0391,2.0792 -12.9501,1.0121 l 0,0 z"
       id="path3891"
       inkscape:connector-curvature="0" />
    <g
       id="g3040"
       transform="matrix(0.96942262,0,0,0.99840264,-960.62495,49.538539)"
       style="fill:#ffffff">
      <path
         inkscape:connector-curvature="0"
         id="path3025"
         d="m 556.244,686.56826 c -8.98718,0 -16.2693,3.2662 -16.2693,7.2864 0,0.3989 0.0725,0.7906 0.21035,1.1719 1.24376,-3.4686 7.9564,-6.1272 16.05895,-6.1272 6.01163,0 11.25925,1.4617 14.07685,3.6305 2.84904,-1.5013 7.07995,-2.4586 11.81163,-2.4586 7.70222,0 14.08878,2.5142 15.31457,5.8216 0.14173,-0.3795 0.21847,-0.7745 0.21847,-1.172 0,-3.8593 -6.95436,-6.9807 -15.53304,-6.9807 -4.73168,0 -8.96259,0.9573 -11.81163,2.4586 -2.8176,-2.1689 -8.06522,-3.6305 -14.07685,-3.6305 z"
         style="opacity:0.40408164000000002;fill:#ffffff;fill-opacity:1;stroke:none" />
      <path
         inkscape:transform-center-y="-5.129586"
         inkscape:transform-center-x="10.909698"
         style="opacity:0.40408164000000002;fill:#ffffff;fill-opacity:1;stroke:none"
         d="m 739.2094,668.00754 c -5.82634,-2.56922 -10.54735,-1.27913 -10.54735,2.87096 0,0.41179 0.0468,0.83683 0.13633,1.26997 0.80631,-3.22523 5.15817,-4.05077 10.41102,-1.73444 3.89739,1.71848 7.29943,4.72747 9.12606,7.77189 1.84699,-0.73537 4.5899,-0.51414 7.65751,0.83854 4.99336,2.20187 9.13378,6.62302 9.92847,10.38767 0.0919,-0.35116 0.14163,-0.73701 0.14163,-1.1474 0,-3.98401 -4.50855,-9.19437 -10.0701,-11.64676 -3.06761,-1.3526 -5.81052,-1.57391 -7.65751,-0.83854 -1.82663,-3.04442 -5.22867,-6.0534 -9.12606,-7.77189 z"
         id="path3036"
         inkscape:connector-curvature="0" />
      <path
         style="opacity:0.40408164000000002;fill:#ffffff;fill-opacity:1;stroke:none"
         d="m 367.89423,736.10914 c -7.2942,1.86497 -12.54495,6.99859 -11.73318,11.45721 0.0806,0.44235 0.21846,0.86169 0.40736,1.25598 0.30909,-4.10501 5.22033,-8.44644 11.79652,-10.12785 4.87919,-1.24756 9.43337,-0.71547 12.15818,1.10523 2.00922,-2.25621 5.24981,-4.19604 9.09011,-5.17789 6.25118,-1.59832 11.94236,-0.13531 13.60521,3.27844 0.0382,-0.45029 0.0211,-0.90429 -0.0593,-1.34507 -0.77932,-4.28034 -7.05398,-6.29883 -14.01647,-4.51861 -3.8403,0.98184 -7.08097,2.92149 -9.09019,5.17779 -2.72474,-1.82079 -7.27899,-2.35279 -12.1581,-1.10523 z"
         id="path3038"
         inkscape:connector-curvature="0" />
      <path
         inkscape:connector-curvature="0"
         id="path4067"
         d="m 252.26854,693.56669 c -3.91287,1.00044 -6.72956,3.7543 -6.29409,6.14606 0.0432,0.23729 0.11718,0.46224 0.21852,0.67375 0.16581,-2.20207 2.80037,-4.53097 6.32807,-5.43294 2.61737,-0.66923 5.0604,-0.3838 6.52208,0.59289 1.07782,-1.21032 2.81619,-2.25091 4.87626,-2.77761 3.35335,-0.85739 6.40631,-0.0726 7.29831,1.75867 0.0205,-0.24155 0.0113,-0.48509 -0.0318,-0.72154 -0.41805,-2.29613 -3.784,-3.37892 -7.51894,-2.42394 -2.06006,0.52669 -3.79848,1.56719 -4.87629,2.77755 -1.46165,-0.97674 -3.90471,-1.26212 -6.52204,-0.59289 z"
         style="opacity:0.40408164000000002;fill:#ffffff;fill-opacity:1;stroke:none" />
      <path
         inkscape:connector-curvature="0"
         id="path3862"
         d="m 903.84771,698.3606 c -5.82634,-2.56922 -10.54735,-1.27913 -10.54735,2.87096 0,0.41179 0.0468,0.83683 0.13633,1.26997 0.80631,-3.22523 5.15817,-4.05077 10.41102,-1.73444 3.89739,1.71848 7.29943,4.72747 9.12606,7.77189 1.84699,-0.73537 4.5899,-0.51414 7.65751,0.83854 4.99336,2.20187 9.13378,6.62302 9.92847,10.38767 0.0919,-0.35116 0.14163,-0.73701 0.14163,-1.1474 0,-3.98401 -4.50855,-9.19437 -10.0701,-11.64676 -3.06761,-1.3526 -5.81052,-1.57391 -7.65751,-0.83854 -1.82663,-3.04442 -5.22867,-6.0534 -9.12606,-7.77189 z"
         style="opacity:0.40408164000000002;fill:#ffffff;fill-opacity:1;stroke:none"
         inkscape:transform-center-x="10.909698"
         inkscape:transform-center-y="-5.129586" />
    </g>
    <path
       style="fill:#ffff00;fill-opacity:1;stroke:none"
       d="m -724.15588,833.75396 78.60176,65.04306 -0.083,-65.17172 -78.51865,0.1288 z m 0,-1.99441 78.51863,0.1288 0.083,-65.17176 -78.60176,65.04311 z m 81.51089,67.03747 78.60177,-65.04306 -78.51867,-0.12879 -0.083,65.17172 z"
       id="path3033"
       inkscape:connector-curvature="0" />
    <text
       xml:space="preserve"
       style="font-size:29.82355118px;font-style:normal;font-variant:normal;font-weight:normal;font-stretch:normal;line-height:125%;letter-spacing:0px;word-spacing:0px;fill:#ffffff;fill-opacity:1;stroke:none;font-family:Poetsen One;-inkscape-font-specification:Poetsen One"
       x="-560.32568"
       y="851.94977"
       id="text3814"
       sodipodi:linespacing="125%"
       transform="scale(0.93085056,1.0742863)"><tspan
         sodipodi:role="line"
         id="tspan3816"
         x="-560.32568"
         y="851.94977"
         style="font-style:normal;font-variant:normal;font-weight:normal;font-stretch:normal;fill:#ffffff;font-family:Solitude;-inkscape-font-specification:Solitude"><tspan
           style="font-style:normal;font-variant:normal;font-weight:normal;font-stretch:normal;fill:#ffffff;font-family:Drakolomb;-inkscape-font-specification:Drakolomb"
           id="tspan3818">PUNTARENAS, COSTA RICA</tspan></tspan></text>
    <g
       transform="matrix(3.1630774,0,0,0.87893781,-2743.4183,376.97413)"
       id="g3852">
      <g
         style="opacity:0.28979588"
         id="g3854"
         transform="matrix(1.9543449,0,0,1.9249484,-181.35764,-1262.1712)">
        <path
           inkscape:connector-curvature="0"
           id="path3856"
           d="m 386.95276,1153.8444 c -25.69165,0 -46.5427,-22.8917 -46.5427,-51.1305 0,-4.0339 0.45939,-7.9496 1.2636,-11.714 1.63279,26.6123 21.77713,47.625 46.4023,47.625 16.81095,0 31.52478,-9.8091 39.69819,-24.4965 8.17341,14.6874 22.88724,24.4965 39.69819,24.4965 16.43584,0 30.86174,-9.4118 39.13658,-23.556 8.27287,14.1556 22.72788,23.556 39.17169,23.556 14.05012,0 26.64059,-6.8759 35.17028,-17.6991 8.52969,10.8232 21.12016,17.6991 35.17027,17.6991 15.3509,0 28.94426,-8.217 37.41668,-20.8199 8.47146,12.6146 22.09258,20.8199 37.45179,20.8199 21.99712,0 40.46316,-16.7805 45.3142,-39.3312 0.0677,1.1277 0.10524,2.2735 0.10524,3.4202 0,28.2388 -20.85105,51.1305 -46.5427,51.1305 -15.35921,0 -28.98033,-8.2054 -37.45178,-20.8199 -8.47243,12.6029 -22.06579,20.8199 -37.41669,20.8199 -14.05011,0 -26.64058,-6.8757 -35.17027,-17.6991 -8.52969,10.8234 -21.12016,17.6991 -35.17028,17.6991 -16.44381,0 -30.89882,-9.4004 -39.17169,-23.556 -8.27484,14.1442 -22.70074,23.556 -39.13658,23.556 -16.81095,0 -31.52478,-9.8091 -39.69819,-24.4965 -8.17341,14.6874 -22.88724,24.4965 -39.69818,24.4965 z"
           style="opacity:0.40408164;fill:#00ffff;fill-opacity:1;stroke:none" />
        <path
           style="opacity:0.40408164;fill:#00ffff;fill-opacity:1;stroke:none"
           d="m 365.73956,1157.6195 c -25.69165,0 -46.5427,-22.8918 -46.5427,-51.1306 0,-4.0338 0.45939,-7.9495 1.2636,-11.714 1.63279,26.6124 21.77713,47.6251 46.4023,47.6251 16.81095,0 31.52478,-9.8091 39.69819,-24.4965 8.17341,14.6874 22.88724,24.4965 39.69819,24.4965 16.43584,0 30.86174,-9.4119 39.13658,-23.556 8.27287,14.1555 22.72788,23.556 39.17169,23.556 14.05012,0 26.64059,-6.8759 35.17028,-17.6991 8.52969,10.8232 21.12016,17.6991 35.17027,17.6991 15.3509,0 28.94426,-8.217 37.41668,-20.8199 8.47146,12.6146 22.09258,20.8199 37.45179,20.8199 21.99712,0 40.46316,-16.7806 45.3142,-39.3312 0.0677,1.1277 0.10524,2.2734 0.10524,3.4201 0,28.2388 -20.85105,51.1306 -46.5427,51.1306 -15.35921,0 -28.98033,-8.2054 -37.45178,-20.82 -8.47243,12.603 -22.06579,20.82 -37.41669,20.82 -14.05011,0 -26.64058,-6.8758 -35.17027,-17.6992 -8.52969,10.8234 -21.12016,17.6992 -35.17028,17.6992 -16.44381,0 -30.89882,-9.4004 -39.17169,-23.5561 -8.27484,14.1442 -22.70074,23.5561 -39.13658,23.5561 -16.81095,0 -31.52478,-9.8091 -39.69819,-24.4966 -8.17341,14.6875 -22.88724,24.4966 -39.69818,24.4966 z"
           id="path3858"
           inkscape:connector-curvature="0" />
      </g>
    </g>
  </g>
</svg>
